#define timer_icon_width 16
#define timer_icon_height 16
static unsigned char timer_icon_bits[] = {
   0x00, 0x00, 0x7e, 0x7e, 0x81, 0x81, 0xa5, 0xa5, 0xa1, 0x85, 0xa1, 0x85,
   0xa1, 0x85, 0xa1, 0x85, 0xa1, 0x85, 0xa1, 0x85, 0xa5, 0xa5, 0x81, 0x81,
   0x7e, 0x7e, 0x00, 0x00, 0x00, 0x00, 0x00, 0x00 };
